<svg width="20" height="20" viewBox="0 0 20 20" fill="none" xmlns="http://www.w3.org/2000/svg">
<g clip-path="url(#clip0_1427_4237)">
<path d="M5.83333 9.16668V15.8333C5.83333 16.0544 5.74554 16.2663 5.58926 16.4226C5.43298 16.5789 5.22101 16.6667 5 16.6667H3.33333C3.11232 16.6667 2.90036 16.5789 2.74408 16.4226C2.5878 16.2663 2.5 16.0544 2.5 15.8333V10C2.5 9.779 2.5878 9.56704 2.74408 9.41075C2.90036 9.25447 3.11232 9.16668 3.33333 9.16668H5.83333ZM5.83333 9.16668C6.71739 9.16668 7.56524 8.81549 8.19036 8.19037C8.81548 7.56525 9.16667 6.7174 9.16667 5.83334V5.00001C9.16667 4.55798 9.34226 4.13406 9.65482 3.8215C9.96738 3.50894 10.3913 3.33334 10.8333 3.33334C11.2754 3.33334 11.6993 3.50894 12.0118 3.8215C12.3244 4.13406 12.5 4.55798 12.5 5.00001V9.16668H15C15.442 9.16668 15.866 9.34227 16.1785 9.65483C16.4911 9.96739 16.6667 10.3913 16.6667 10.8333L15.8333 15C15.7135 15.5112 15.4861 15.9502 15.1855 16.2508C14.8849 16.5514 14.5274 16.6974 14.1667 16.6667H8.33333C7.67029 16.6667 7.03441 16.4033 6.56557 15.9344C6.09673 15.4656 5.83333 14.8297 5.83333 14.1667" stroke="#08314E" stroke-width="1.25" stroke-linecap="round" stroke-linejoin="round"/>
</g>
<defs>
<clipPath id="clip0_1427_4237">
<rect width="20" height="20" fill="none"/>
</clipPath>
</defs>
</svg>

