<svg width="20" height="20" viewBox="0 0 20 20" fill="none" xmlns="http://www.w3.org/2000/svg">
<g clip-path="url(#clip0_1427_4241)">
<path d="M5.83333 10.8333V4.16666C5.83333 3.94565 5.74554 3.73369 5.58926 3.57741C5.43298 3.42113 5.22101 3.33333 5 3.33333H3.33333C3.11232 3.33333 2.90036 3.42113 2.74408 3.57741C2.5878 3.73369 2.5 3.94565 2.5 4.16666V9.99999C2.5 10.221 2.5878 10.433 2.74408 10.5893C2.90036 10.7455 3.11232 10.8333 3.33333 10.8333H5.83333ZM5.83333 10.8333C6.71739 10.8333 7.56524 11.1845 8.19036 11.8096C8.81548 12.4348 9.16667 13.2826 9.16667 14.1667V15C9.16667 15.442 9.34226 15.8659 9.65482 16.1785C9.96738 16.4911 10.3913 16.6667 10.8333 16.6667C11.2754 16.6667 11.6993 16.4911 12.0118 16.1785C12.3244 15.8659 12.5 15.442 12.5 15V10.8333H15C15.442 10.8333 15.866 10.6577 16.1785 10.3452C16.4911 10.0326 16.6667 9.60869 16.6667 9.16666L15.8333 4.99999C15.7135 4.48877 15.4861 4.04979 15.1855 3.74919C14.8849 3.44859 14.5274 3.30264 14.1667 3.33333H8.33333C7.67029 3.33333 7.03441 3.59672 6.56557 4.06556C6.09673 4.5344 5.83333 5.17029 5.83333 5.83333" stroke="#08314E" stroke-width="1.25" stroke-linecap="round" stroke-linejoin="round"/>
</g>
<defs>
<clipPath id="clip0_1427_4241">
<rect width="20" height="20" fill="none"/>
</clipPath>
</defs>
</svg>

