<?xml version="1.0" encoding="utf-8"?>
<svg viewBox="600.7573852539062 337.2297058105469 253.82470703125 209.47030639648438" width="253.82470703125" height="209.47030639648438" xmlns="http://www.w3.org/2000/svg"><g transform="matrix(1, 0, 0, 1, 0, 0)"><g transform="matrix(1, 0, 0, 1, 0, 0)">
	<path fill="#231F20" d="M726.7,419.5c-47.2,0-85.4,72.2-85.4,99.7c0,27.5,38.2,0,85.4,0s85.4,27.5,85.4,0&#10;&#9;&#9;C812.1,491.7,773.9,419.5,726.7,419.5z" style="fill: rgb(204, 204, 204);"/>
	
		<path d="M 851.800026 426.299988 A 35.900002 21.6 0 0 1 815.900024 447.899988 A 35.900002 21.6 0 0 1 780.000023 426.299988 A 35.900002 21.6 0 0 1 815.900024 404.699987 A 35.900002 21.6 0 0 1 851.800026 426.299988 Z" transform="matrix(0.5938 -0.8046 0.8046 0.5938 -11.5971 829.7176)" fill="#231F20" style="fill: rgb(204, 204, 204);"/>
	
		<path d="M 801.499977 378.600006 A 35.900002 21.6 0 0 1 765.599976 400.200006 A 35.900002 21.6 0 0 1 729.699974 378.600006 A 35.900002 21.6 0 0 1 765.599976 357.000006 A 35.900002 21.6 0 0 1 801.499977 378.600006 Z" transform="matrix(-0.3743 0.9273 -0.9273 -0.3743 1403.2058 -189.6263)" fill="#231F20" style="fill: rgb(204, 204, 204);"/>
	
		<path d="M 727.999977 378.600006 A 35.900002 21.6 0 0 1 692.099976 400.200006 A 35.900002 21.6 0 0 1 656.199974 378.600006 A 35.900002 21.6 0 0 1 692.099976 357.000006 A 35.900002 21.6 0 0 1 727.999977 378.600006 Z" transform="matrix(8.855888e-02 0.9961 -0.9961 8.855888e-02 1007.9146 -344.3002)" fill="#231F20" style="fill: rgb(204, 204, 204);"/>
	
		<path d="M 671.300026 419.5 A 35.900002 21.6 0 0 1 635.400024 441.1 A 35.900002 21.6 0 0 1 599.500023 419.5 A 35.900002 21.6 0 0 1 635.400024 397.9 A 35.900002 21.6 0 0 1 671.300026 419.5 Z" transform="matrix(0.4205 0.9073 -0.9073 0.4205 748.8776 -333.3928)" fill="#231F20" style="fill: rgb(204, 204, 204);"/>
</g></g></svg>